# xmcd
# 
# Track frame offsets:
#     150
#     16824
#     34992
#     53111
#     83797
#     102507
#     132725
#     160514
#     176517
#     199965
#     217367
#     242949
#     285296
#     326508
# 
# Disc length: 4679
# 
# Revision: 2
# Processed by: cddbd v1.5.2PL0 Copyright (c) Steve Scherf et al.
# Submitted via: BonkEnc v1.0.8
# 
DISCID=cb12450e
DTITLE=Various Artist - 80s Groove 2 Sessions
DYEAR=2006
DGENRE=R&B
TTITLE0=Grace Jones - Pull Up To The Bumper
TTITLE1=Heatwave - Gangsters Of The Groove
TTITLE2=Oliver Cheatham - Get Down Saturday Night
TTITLE3=David Bendeth - Feel The Real
TTITLE4=Fat Larry's Band - Act Like You Know
TTITLE5=David Joseph - You Can't Hide (Your Love From Me) (Larry Levan Mix)
TTITLE6=Joyce Sims - All and All
TTITLE7=Tyrone Brunson - The Smurf
TTITLE8=Dhar Braxton - Jump Back (Set Me Free)
TTITLE9=Royalle Delite - I'll Be A Freak For You
TTITLE10=Class Action - Weekend
TTITLE11=D Train - Keep On
TTITLE12=Rick Holmes - Remember To Remember
TTITLE13=Hi-Gloss - You'll Never Know
EXTD=CD1
EXTT0=
EXTT1=
EXTT2=
EXTT3=
EXTT4=
EXTT5=Larry Levan Mix
EXTT6=
EXTT7=
EXTT8=
EXTT9=
EXTT10=
EXTT11=
EXTT12=
EXTT13=
PLAYORDER=
